<?xml version="1.0" standalone="no"?>
<!DOCTYPE svg PUBLIC "-//W3C//DTD SVG 20010904//EN"
 "http://www.w3.org/TR/2001/REC-SVG-20010904/DTD/svg10.dtd">
<svg version="1.0" xmlns="http://www.w3.org/2000/svg"
 width="150.000000pt" height="150.000000pt" viewBox="0 0 150.000000 150.000000"
 preserveAspectRatio="xMidYMid meet">
<metadata>
Created by potrace 1.11, written by Peter Selinger 2001-2013
</metadata>
<g transform="translate(0.000000,150.000000) scale(0.100000,-0.100000)"
fill="#000000" stroke="none">
<path d="M669 1106 c-2 -2 -23 -6 -47 -10 -62 -8 -122 -25 -147 -42 -20 -13
-21 -21 -19 -106 1 -51 5 -132 8 -180 5 -79 -2 -115 -19 -88 -3 5 -13 10 -20
10 -21 0 2 -48 27 -55 10 -4 18 -12 19 -18 0 -7 2 -39 4 -72 8 -150 19 -195
49 -195 6 0 28 -5 49 -11 l38 -10 -38 -26 c-21 -14 -65 -35 -98 -45 -115 -38
-204 -127 -229 -231 l-6 -27 601 0 602 0 -6 68 c-18 201 -56 246 -208 248 -79
1 -89 3 -115 27 -30 28 -101 48 -175 49 -29 0 -37 3 -27 9 13 7 15 32 12 161
-8 356 -16 503 -27 511 -33 20 -213 47 -228 33z"/>
</g>
</svg>
